<?xml version="1.0" encoding="UTF-8"?>
<svg id="Calque_1" data-name="Calque 1" xmlns="http://www.w3.org/2000/svg" viewBox="0 0 1000 1000">
  <defs>
    <style>
      .cls-1 {
        fill: #fff;
      }
    </style>
  </defs>
  <path class="cls-1" d="M0,1000V0c333.33,0,666.67,0,1000,0V1000H0ZM229.13,363.66c-.43,3.03-.91,4.97-.95,6.92-.94,47.65-2.72,95.3-2.5,142.94,.24,51.63,2.15,103.26,3.76,154.87,.53,16.96,2.5,33.88,3.63,50.82,.85,12.77,1.94,25.57,1.86,38.35-.04,5.96-1.43,12.55-4.26,17.73-11.53,21.12-21.32,42.81-26.92,66.33-3.34,14.02-7.49,27.85-11.42,42.27,3.14,.74,5.88,2.03,8.55,1.9,7.2-.34,14.36-1.44,21.56-1.97,19.1-1.4,38.21-2.68,57.32-3.97,5.65-.38,11.3-.72,16.96-.91,6.57-.21,13.49,1.03,19.66-.59,14.71-3.88,29.37-5.64,44.47-3.7,1.45,.19,2.97-.15,4.46-.28,5.79-.51,11.57-1.15,17.36-1.53,16.95-1.12,33.93-1.88,50.86-3.25,25.03-2.02,49.99-4.84,75.03-6.6,29.9-2.11,59.85-3.55,89.79-5.08,8.43-.43,16.89-.11,25.34-.23,3.13-.04,6.47,.29,9.34-.66,9.37-3.09,18.78-3.62,28.56-2.6,6.24,.65,12.75,.79,18.9-.25,22.79-3.85,45.64-4.84,68.7-3.88,10.79,.45,21.74,.51,32.41-.87,13.37-1.73,26.54-4.83,40.14-2.77,3.02,.46,4.4-.53,3.68-3.86-4.38-20.15-7.97-40.5-13.21-60.42-6.21-23.62-13.97-46.83-20.78-70.3-4.94-17.02-9-34.27-5.38-52.13,2.03-10.01,2.98-19.96,2.52-30.2-1.12-24.96-2.47-49.94-2.45-74.91,.02-33.81,1.03-67.63,2.04-101.43,.38-12.8,1.03-25.72,3.18-38.32,5.93-34.82,8.6-69.75,5.43-104.95-1.16-12.87-3.73-25.62-5.72-38.84-17.15,3.8-33.61,7.45-50.07,11.1-.11-.38-.23-.77-.34-1.15,7.75-2.8,15.5-5.61,23.26-8.41-.09-.28-.17-.55-.26-.83l-29.19,5.18c-.07-.3-.14-.61-.21-.91,5.74-1.88,11.49-3.75,17.23-5.63-.07-.27-.13-.54-.2-.81-8.79,1.44-17.58,2.89-26.62,4.37,.52,1.41,.75,2.39,1.22,3.24,8.77,15.96,5.43,30.92-4.09,45.1-10.13,15.08-23.45,27.13-39.5,35.29-16.57,8.43-33.65,16.22-51.19,22.32-22.11,7.69-44.67,14.49-67.48,19.71-53.41,12.22-107.3,12.8-161.19,2.88-24.44-4.5-48.38-10.98-70.49-22.78-10.94-5.84-21.37-12.55-28.12-23.36-2.19-3.51-4.76-5.21-8.49-4.48-10.41,2.04-20.84,4.05-31.09,6.71-11.34,2.95-22.1,8.91-35.09,4.82Z"/>
  <path d="M229.13,363.66c12.98,4.09,23.75-1.87,35.09-4.82,10.25-2.67,20.69-4.68,31.09-6.71,3.73-.73,6.31,.98,8.49,4.48,6.75,10.81,17.18,17.52,28.12,23.36,22.11,11.8,46.04,18.28,70.49,22.78,53.89,9.92,107.78,9.34,161.19-2.88,22.81-5.22,45.37-12.03,67.48-19.71,17.54-6.1,34.62-13.88,51.19-22.32,16.05-8.17,29.37-20.21,39.5-35.29,9.52-14.18,12.87-29.14,4.09-45.1-.47-.85-.7-1.84-1.22-3.24,9.05-1.49,17.84-2.93,26.62-4.37,.07,.27,.13,.54,.2,.81-5.74,1.88-11.49,3.75-17.23,5.63,.07,.3,.14,.61,.21,.91l29.19-5.18c.09,.28,.17,.55,.26,.83-7.75,2.8-15.5,5.61-23.26,8.41,.11,.38,.23,.77,.34,1.15,16.46-3.65,32.92-7.3,50.07-11.1,1.99,13.23,4.56,25.97,5.72,38.84,3.17,35.2,.5,70.13-5.43,104.95-2.15,12.59-2.8,25.52-3.18,38.32-1.01,33.8-2.02,67.62-2.04,101.43-.02,24.97,1.33,49.95,2.45,74.91,.46,10.24-.49,20.19-2.52,30.2-3.62,17.87,.45,35.12,5.38,52.13,6.81,23.47,14.57,46.68,20.78,70.3,5.24,19.92,8.83,40.27,13.21,60.42,.72,3.33-.66,4.32-3.68,3.86-13.6-2.07-26.77,1.04-40.14,2.77-10.67,1.38-21.63,1.32-32.41,.87-23.06-.96-45.91,.03-68.7,3.88-6.15,1.04-12.66,.91-18.9,.25-9.77-1.02-19.18-.49-28.56,2.6-2.88,.95-6.21,.61-9.34,.66-8.45,.12-16.91-.2-25.34,.23-29.94,1.53-59.89,2.97-89.79,5.08-25.04,1.76-50.01,4.58-75.03,6.6-16.93,1.37-33.91,2.13-50.86,3.25-5.8,.38-11.57,1.02-17.36,1.53-1.49,.13-3.01,.47-4.46,.28-15.1-1.95-29.76-.18-44.47,3.7-6.17,1.63-13.09,.38-19.66,.59-5.66,.18-11.31,.53-16.96,.91-19.11,1.29-38.22,2.57-57.32,3.97-7.2,.53-14.36,1.62-21.56,1.97-2.67,.13-5.41-1.16-8.55-1.9,3.93-14.42,8.08-28.25,11.42-42.27,5.6-23.52,15.39-45.21,26.92-66.33,2.83-5.18,4.22-11.78,4.26-17.73,.09-12.78-1.01-25.58-1.86-38.35-1.13-16.95-3.1-33.86-3.63-50.82-1.61-51.62-3.52-103.24-3.76-154.87-.22-47.64,1.56-95.3,2.5-142.94,.04-1.95,.52-3.88,.95-6.92Zm223.26,288.26l.25-1.78c5.3-2.9,11.14-5.12,15.76-8.86,6.23-5.05,12-10.88,17.03-17.13,3.17-3.94,4.69-9.23,6.79-13.99,.51-1.16,.06-2.78,.64-3.87,6.2-11.62,7.8-24.03,7.59-37.06-.17-11.19-6.5-19.31-13.75-25.53-9.82-8.44-22.61-7.56-34.67-4.38-5.23,1.38-9.96,4.58-15.15,6.14-11.09,3.33-22.59,5.46-33.48,9.33-14.79,5.25-29.87,7.1-45.4,6.98-16.3-.13-32.61,.17-48.91-.13-6-.11-9.86,2.18-12.29,7.4-2.27,4.89-1.28,12.15,2.25,15.9,4.75,5.04,9.61,9.97,14.35,15.03,1,1.07,1.63,2.47,2.45,3.71,1.46,2.18,2.6,4.73,4.49,6.44,4.43,3.99,9.11,7.74,13.9,11.29,5.01,3.71,5.46,5.35,.73,9.68-9.51,8.73-12.56,20.74-16.68,32.18-.6,1.67,.19,3.89,.46,5.84,.23,1.63,1.13,3.31,.87,4.83-1.43,8.34,2.86,15.09,5.83,22.22,5.24,12.59,16.84,18.93,27.49,25.05,10.82,6.22,23.37,9.49,35.29,13.7,3.37,1.19,7.24,.85,10.76,1.7,10.52,2.54,21.11,4.39,31.98,3.7,7.58-.49,15.2-.91,22.71-2.01,4.63-.68,9.03-2.84,13.63-3.9,5.95-1.37,11.74-2.36,17.08-6.12,4.32-3.05,8.94-5.43,11.96-10,.59-.88,2.01-1.16,2.85-1.94,5.27-4.88,11.27-9.24,15.41-14.95,2.58-3.55,6.21-9.7,2.02-13.78-5.65-5.49-12.54-9.97-19.53-13.72-5.85-3.14-12.63-4.54-18.94-6.87-1-.37-1.68-1.57-2.56-2.32-.99-.85-1.94-1.81-3.07-2.4-6.69-3.5-13.43-6.9-20.15-10.33Zm-98.63,172.21c12.62,.06,22.68-3.01,29.69-8.3,15.94-12.03,17.1-34.82,2.41-47.22-14.37-12.13-38.3-13.9-54.3-4-20.26,12.53-20.53,39.66-.47,52.51,7.63,4.89,16.16,6.82,22.66,7.02Z"/>
  <path class="cls-1" d="M452.39,651.92c6.72,3.43,13.46,6.84,20.15,10.33,1.13,.59,2.08,1.55,3.07,2.4,.88,.75,1.56,1.95,2.56,2.32,6.31,2.32,13.08,3.73,18.94,6.87,6.99,3.75,13.88,8.23,19.53,13.72,4.19,4.08,.55,10.23-2.02,13.78-4.14,5.71-10.15,10.07-15.41,14.95-.84,.78-2.26,1.06-2.85,1.94-3.02,4.57-7.64,6.95-11.96,10-5.34,3.77-11.13,4.76-17.08,6.12-4.6,1.06-9,3.22-13.63,3.9-7.51,1.11-15.12,1.52-22.71,2.01-10.87,.7-21.45-1.15-31.98-3.7-3.52-.85-7.4-.51-10.76-1.7-11.92-4.21-24.47-7.49-35.29-13.7-10.66-6.12-22.25-12.46-27.49-25.05-2.96-7.12-7.25-13.88-5.83-22.22,.26-1.51-.64-3.2-.87-4.83-.27-1.95-1.07-4.16-.46-5.84,4.13-11.44,7.17-23.45,16.68-32.18,4.72-4.34,4.28-5.97-.73-9.68-4.79-3.55-9.47-7.29-13.9-11.29-1.89-1.71-3.03-4.26-4.49-6.44-.83-1.23-1.46-2.64-2.45-3.71-4.73-5.06-9.59-9.99-14.35-15.03-3.53-3.74-4.52-11.01-2.25-15.9,2.43-5.22,6.29-7.51,12.29-7.4,16.3,.31,32.6,0,48.91,.13,15.53,.12,30.61-1.73,45.4-6.98,10.89-3.86,22.38-5.99,33.48-9.33,5.2-1.56,9.93-4.77,15.15-6.14,12.06-3.18,24.84-4.06,34.67,4.38,7.24,6.22,13.57,14.34,13.75,25.53,.2,13.04-1.4,25.44-7.59,37.06-.58,1.09-.13,2.71-.64,3.87-2.1,4.76-3.62,10.05-6.79,13.99-5.03,6.25-10.8,12.08-17.03,17.13-4.61,3.74-10.46,5.96-15.76,8.86l-.25,1.78Z"/>
  <path class="cls-1" d="M353.75,824.13c-6.49-.2-15.02-2.13-22.66-7.02-20.07-12.84-19.8-39.98,.47-52.51,16-9.89,39.93-8.13,54.3,4,14.69,12.4,13.52,35.19-2.41,47.22-7.01,5.29-17.07,8.37-29.69,8.3Z"/>
</svg>